<svg id="Capa_1" data-name="Capa 1" xmlns="http://www.w3.org/2000/svg" xmlns:xlink="http://www.w3.org/1999/xlink" viewBox="0 0 332.24 94.17"><defs><style>.cls-1{fill:none;}.cls-2{clip-path:url(#clip-path);}.cls-3{fill:#ffbd4a;}.cls-4{fill:#35b729;}.cls-5{isolation:isolate;}.cls-6{fill:#939393;}</style><clipPath id="clip-path" transform="translate(-3)"><rect class="cls-1" x="277.49" width="57.75" height="57.75"/></clipPath></defs><g class="cls-2"><path class="cls-3" d="M277.49,0V9a48.75,48.75,0,0,1,48.75,48.75h9A57.74,57.74,0,0,0,277.51,0Z" transform="translate(-3)"/><path class="cls-4" d="M277.49,18v9a30.75,30.75,0,0,1,30.75,30.75h9A39.75,39.75,0,0,0,277.49,18Z" transform="translate(-3)"/><path class="cls-3" d="M286.12,40.5a8.63,8.63,0,1,0,8.63,8.63h0a8.62,8.62,0,0,0-8.62-8.62Z" transform="translate(-3)"/></g><g class="cls-5"><g class="cls-5"><path class="cls-6" d="M20.12,54q5.47,0,5.48,6.76a18.52,18.52,0,0,1-.12,2q-.77,7.63-6.36,8.4l4.24,12.08H20.12l-4-11.76-8.24-.56L6,83.25H3L7.64,54Zm-2.48,14.4a4.52,4.52,0,0,0,3.24-1.3,6.5,6.5,0,0,0,1.6-4.3,12.29,12.29,0,0,0,.12-1.56,9.75,9.75,0,0,0-.1-1.38q-.11-.73-.24-1.38a1.52,1.52,0,0,0-.58-1,3.55,3.55,0,0,0-2-.52H10.16l-1.8,11.4Z" transform="translate(-3)"/></g><g class="cls-5"><path class="cls-6" d="M29.8,74.17a19.67,19.67,0,0,0-.32,3.14,5.2,5.2,0,0,0,.28,1.94,2.83,2.83,0,0,0,2.8,1.44c.69,0,1.78.08,3.26.08a51.57,51.57,0,0,0,6.7-.64l-.32,2.24a38.32,38.32,0,0,1-10,1.16c-2.53,0-4.19-.92-5-2.76a9.48,9.48,0,0,1-.6-3.62,27.67,27.67,0,0,1,.52-5,31.47,31.47,0,0,1,1.1-4.48A12,12,0,0,1,30,64.49q2.12-2.88,7.76-2.88c2.69,0,4.71.47,6,1.4a4.06,4.06,0,0,1,1.68,3.6,7,7,0,0,1-2,5.2A7.82,7.82,0,0,1,39.84,74a21.7,21.7,0,0,1-5.72.72A12.37,12.37,0,0,1,29.8,74.17ZM30.12,72c1,.08,1.75.12,2.2.12s1.21,0,2.26-.06a17.12,17.12,0,0,0,3.16-.42,8.19,8.19,0,0,0,3-1.36,3.88,3.88,0,0,0,1.76-3.4,1.88,1.88,0,0,0-1-1.8A8.21,8.21,0,0,0,38,64.57a12.67,12.67,0,0,0-3.94.48,3.91,3.91,0,0,0-2.14,1.7,12.58,12.58,0,0,0-1,2A21.45,21.45,0,0,0,30.12,72Z" transform="translate(-3)"/><path class="cls-6" d="M56.72,91.21a3.84,3.84,0,0,0,2.6-1,4.48,4.48,0,0,0,1.4-2.82l.84-5.32a20.2,20.2,0,0,1-7.12,1.52,6.6,6.6,0,0,1-4.76-1.54A5.77,5.77,0,0,1,48,78c0-.4,0-1.05,0-2a31.92,31.92,0,0,1,.32-3.8,15.57,15.57,0,0,1,3.12-7.74A7.17,7.17,0,0,1,57,61.77a52.56,52.56,0,0,1,6.76.44l3.8.48L63.68,87.41a7.92,7.92,0,0,1-2.56,5.14,6.63,6.63,0,0,1-4.24,1.62,4.58,4.58,0,0,1-.64,0l-10.16-1,.32-2ZM51.2,72.53a13.67,13.67,0,0,0-.4,3.3A9.89,9.89,0,0,0,51,78.07a6.36,6.36,0,0,0,.52,1.26c.43.91,1.36,1.36,2.8,1.36a32,32,0,0,0,7.64-1l2.4-15H57a4.14,4.14,0,0,0-2.64.92A6.17,6.17,0,0,0,52.6,68,19.11,19.11,0,0,0,51.2,72.53Z" transform="translate(-3)"/><path class="cls-6" d="M69.12,83.25,72.48,62h3L72.08,83.25ZM74,55.45h2c.53,0,.8.24.8.72a1,1,0,0,1,0,.28l-.32,2.16a1,1,0,0,1-1.08.92h-2c-.53,0-.8-.24-.8-.72v-.2l.32-2.16A1,1,0,0,1,74,55.45Z" transform="translate(-3)"/><path class="cls-6" d="M81.44,64.15q2.36-2.34,7.5-2.34c3.43,0,5.75.91,7,2.72a8.6,8.6,0,0,1,1.2,4.84,22.66,22.66,0,0,1-.32,3.56q-1,6-3.22,8.26t-7.4,2.26q-5.18,0-7.1-2.44a7.69,7.69,0,0,1-1.28-4.8,21,21,0,0,1,.28-3.28Q79.09,66.5,81.44,64.15Zm2.28,1.94a5.7,5.7,0,0,0-1.6,2.46,22.76,22.76,0,0,0-1,4,22.77,22.77,0,0,0-.4,3.54A6.19,6.19,0,0,0,81,78a4.28,4.28,0,0,0,.66,1.28,2.26,2.26,0,0,0,1.16.76,10,10,0,0,0,3.24.44,17.27,17.27,0,0,0,3-.2,5.33,5.33,0,0,0,2.06-.94,5,5,0,0,0,1.66-2.3,20.18,20.18,0,0,0,1-3.9,24.41,24.41,0,0,0,.4-4.1,4.65,4.65,0,0,0-.64-2.68q-1.12-1.61-4.8-1.6a14.32,14.32,0,0,0-3,.24A4.9,4.9,0,0,0,83.72,66.09Z" transform="translate(-3)"/></g><g class="cls-5"><path class="cls-6" d="M113.72,61.65a5.15,5.15,0,0,1,4.48,2,5.75,5.75,0,0,1,1.12,3.52,6.93,6.93,0,0,1-.12,1.28l-2.36,14.8h-3l2.36-14.8a5.75,5.75,0,0,0,.08-.88,3.11,3.11,0,0,0-.74-2.12,2.91,2.91,0,0,0-2.3-.84,13.43,13.43,0,0,0-3,.32,16.36,16.36,0,0,0-2.28.66c-.59.23-1.59.66-3,1.3l-2.6,16.36h-3L102.84,62h2.08l.48,2.48a19.61,19.61,0,0,1,5-2.28A10.21,10.21,0,0,1,113.72,61.65Z" transform="translate(-3)"/></g><g class="cls-5"><path class="cls-6" d="M125.72,63.73a9.91,9.91,0,0,1,2.4-1.5,8,8,0,0,1,2.18-.58,21,21,0,0,1,2.34-.12,22.11,22.11,0,0,1,4.08.6,8.69,8.69,0,0,1,4.24,2l-2.8,19.16H136l-.44-2.4a13.85,13.85,0,0,1-7.44,2.68q-4,0-5.4-2.08a8.83,8.83,0,0,1-1.16-4.76,29.85,29.85,0,0,1,.48-4.78,21,21,0,0,1,1.42-5A8.34,8.34,0,0,1,125.72,63.73ZM126.78,67a13.79,13.79,0,0,0-1,2.44,22.27,22.27,0,0,0-.84,3.62,23.58,23.58,0,0,0-.32,3.52,5.73,5.73,0,0,0,.4,2.36,3,3,0,0,0,3,1.64,14.32,14.32,0,0,0,3.8-.44,35.09,35.09,0,0,0,4-1.48l2.08-13.48a19.06,19.06,0,0,0-4.52-.8,13.16,13.16,0,0,0-2.46.18c-.6.12-1.08.23-1.44.34a5.68,5.68,0,0,0-1.36.7A4.11,4.11,0,0,0,126.78,67Z" transform="translate(-3)"/></g><g class="cls-5"><path class="cls-6" d="M146.6,75.69a11.71,11.71,0,0,0-.24,2.06,7.18,7.18,0,0,0,.08,1.2,1.28,1.28,0,0,0,.36.7,6.53,6.53,0,0,0,2.44.9l2,.46-.36,2.24h-2.72q-4.72,0-4.72-5.2a15.76,15.76,0,0,1,.2-2.36l3.76-23.76h3Z" transform="translate(-3)"/></g><g class="cls-5"><path class="cls-6" d="M171.54,55.11A10.12,10.12,0,0,1,174.7,54a23.09,23.09,0,0,1,3.52-.24,30.07,30.07,0,0,1,3.2.14,11.55,11.55,0,0,1,2.42.54,6,6,0,0,1,2,1.08,7.5,7.5,0,0,1,2.36,4.52,17.33,17.33,0,0,1,.2,2.42c0,.71,0,1.47,0,2.3A34.88,34.88,0,0,1,187.9,69a44.13,44.13,0,0,1-1.14,5.36,17.13,17.13,0,0,1-1.62,4,13,13,0,0,1-2,2.62,7.1,7.1,0,0,1-2.42,1.58,17.81,17.81,0,0,1-6.08.88q-5.09,0-7.12-1.52a6.92,6.92,0,0,1-2.48-4.36,11.91,11.91,0,0,1-.28-2.42c0-.71,0-1.47,0-2.28a40.06,40.06,0,0,1,.56-4.64,37.37,37.37,0,0,1,1.48-6.2,19.75,19.75,0,0,1,2-4.4A7.22,7.22,0,0,1,171.54,55.11Zm-1.4,6.08a31.2,31.2,0,0,0-1,3.2c-.33,1.27-.65,2.83-.94,4.7a33.84,33.84,0,0,0-.46,3.9c0,.73,0,1.44,0,2.12a8.38,8.38,0,0,0,.36,2.28,3.42,3.42,0,0,0,1.34,1.94,5.6,5.6,0,0,0,2.18.9,19.21,19.21,0,0,0,3.34.22,13.43,13.43,0,0,0,3.62-.42,6.76,6.76,0,0,0,2.8-1.66q2.52-2.36,3.6-9.56a34.14,34.14,0,0,0,.52-5.38,12.73,12.73,0,0,0-.26-3.08,12.74,12.74,0,0,0-.52-1.5,2.41,2.41,0,0,0-.84-1,8.42,8.42,0,0,0-1-.64,4.21,4.21,0,0,0-1.28-.34c-.83-.08-1.78-.12-2.86-.12s-1.87,0-2.36,0a13.38,13.38,0,0,0-1.84.26,4.13,4.13,0,0,0-1.7.68A11.48,11.48,0,0,0,171.42,59,6.69,6.69,0,0,0,170.14,61.19Z" transform="translate(-3)"/><path class="cls-6" d="M204,61.65a5.15,5.15,0,0,1,4.48,2,5.75,5.75,0,0,1,1.12,3.52,6.93,6.93,0,0,1-.12,1.28l-2.36,14.8h-3l2.36-14.8a5.75,5.75,0,0,0,.08-.88,3.11,3.11,0,0,0-.74-2.12,2.91,2.91,0,0,0-2.3-.84,13.43,13.43,0,0,0-3,.32,16.36,16.36,0,0,0-2.28.66c-.59.23-1.59.66-3,1.3l-2.6,16.36h-3L193.12,62h2.08l.48,2.48a19.61,19.61,0,0,1,5-2.28A10.21,10.21,0,0,1,204,61.65Z" transform="translate(-3)"/><path class="cls-6" d="M220.92,83.25,236.32,54h3l5.64,29.28h-3l-1.56-8.16H228.48l-4.32,8.16ZM230,72.13h9.76l-2.52-14Z" transform="translate(-3)"/><path class="cls-6" d="M247.92,83.25,251.28,62h3l-3.36,21.24Zm4.88-27.8h2c.53,0,.8.24.8.72a1.7,1.7,0,0,1,0,.28l-.32,2.16a1,1,0,0,1-1.08.92h-2c-.53,0-.8-.24-.8-.72v-.2l.32-2.16A1,1,0,0,1,252.8,55.45Z" transform="translate(-3)"/><path class="cls-6" d="M267.34,62.13a8.66,8.66,0,0,1,1.34-.28,20.48,20.48,0,0,1,2.14-.08,4.91,4.91,0,0,1,2.1.32L272.44,65a11.73,11.73,0,0,0-2.7-.24,15,15,0,0,0-5.46,1c-.59.24-1.6.68-3,1.32l-2.56,16.16h-3L259.08,62h2.08l.44,2.68,1.1-.58c.57-.31,1-.51,1.18-.62L265,63a8.54,8.54,0,0,1,1.22-.5Z" transform="translate(-3)"/></g></g></svg>